<?xml version="1.0" encoding="utf-8"?>
<!-- Generator: Adobe Illustrator 24.0.0, SVG Export Plug-In . SVG Version: 6.00 Build 0)  -->
<svg version="1.1" id="Camada_1" xmlns="http://www.w3.org/2000/svg" xmlns:xlink="http://www.w3.org/1999/xlink" x="0px" y="0px"
	 viewBox="0 0 375 812" style="enable-background:new 0 0 375 812;" xml:space="preserve">
<style type="text/css">
	.st0{clip-path:url(#SVGID_2_);}
	.st1{display:none;fill:url(#SVGID_3_);}
	.st2{fill:none;}
	.st3{fill:url(#SVGID_4_);}
	.st4{fill:url(#SVGID_5_);}
	.st5{fill:url(#SVGID_6_);}
	.st6{fill:url(#SVGID_7_);}
	.st7{fill:url(#SVGID_8_);}
	.st8{fill:#FFFFFF;}
	.st9{fill:#009999;}
	.st10{fill:#006568;}
	.st11{clip-path:url(#SVGID_10_);fill:url(#SVGID_11_);}
	.st12{display:none;clip-path:url(#SVGID_10_);}
	.st13{display:inline;}
	.st14{clip-path:url(#SVGID_10_);fill:#FFFFFF;}
	.st15{display:none;}
	.st16{display:inline;opacity:0.25;}
	.st17{display:none;fill:url(#SVGID_12_);}
	.st18{clip-path:url(#SVGID_14_);fill:url(#SVGID_15_);}
	.st19{clip-path:url(#SVGID_14_);}
	.st20{fill:#FEFEFE;}
	.st21{fill:url(#SVGID_16_);}
	.st22{fill:url(#SVGID_17_);}
	.st23{fill:url(#SVGID_18_);}
	.st24{clip-path:url(#SVGID_20_);fill:url(#SVGID_21_);}
	.st25{clip-path:url(#SVGID_20_);fill:url(#SVGID_22_);}
	.st26{clip-path:url(#SVGID_14_);fill:#FFFFFF;}
	.st27{display:none;fill:#FFFFFF;}
	.st28{font-family:'aAppleTea';}
	.st29{font-size:29px;}
	.st30{display:none;fill:#C6C6C6;}
</style>
<g>
	<defs>
		<rect id="SVGID_1_" width="375" height="812"/>
	</defs>
	<clipPath id="SVGID_2_">
		<use xlink:href="#SVGID_1_"  style="overflow:visible;"/>
	</clipPath>
	<g class="st0">
		<g>
			<linearGradient id="SVGID_3_" gradientUnits="userSpaceOnUse" x1="191.5" y1="1048.9359" x2="191.5" y2="252.6227">
				<stop  offset="0" style="stop-color:#00ADFB"/>
				<stop  offset="0.9916" style="stop-color:#B9EDFF"/>
			</linearGradient>
			<path class="st1" d="M495.23,513.69c-1.06-170.76-142.82-307.73-314.67-301.67C24.62,217.53-103.56,343.22-111.8,499.03
				c-4.35,82.32,24.11,157.82,73.33,214.84l0,0l176.72,256.64c27.14,39.42,85.47,39.05,112.12-0.69L423.9,711.02l0,0
				C468.78,657.71,495.7,588.83,495.23,513.69z"/>
			<g>
				<g>
					<path class="st2" d="M363.38,492.45c0.27-0.64,0.41-1.29,0.41-1.97c0-0.01,0-0.02,0.01-0.02c0-0.01,0-0.02,0-0.03
						c0-0.64-0.1-1.25-0.31-1.85c-0.04-0.13-0.1-0.24-0.15-0.36c-0.2-0.45-0.43-0.87-0.75-1.25c-0.2-0.25-0.44-0.45-0.67-0.66
						c-0.18-0.16-0.3-0.37-0.52-0.5l-0.02-0.01c-0.18-0.12-0.31-0.18-0.45-0.25c-0.04-0.02-0.08-0.05-0.12-0.07
						c-0.04-0.02-0.09-0.06-0.14-0.08c-0.14-0.06-0.27-0.12-0.41-0.17L57.89,367.59c-2.15-0.83-4.6-0.24-6.12,1.51
						c-1.51,1.74-1.77,4.25-0.65,6.26l50.3,89.79l-34.76,83.04c-0.04,0.05-0.07,0.12-0.11,0.17c-0.28,0.34-0.52,0.69-0.71,1.09
						c-0.1,0.2-0.19,0.39-0.26,0.6c-0.18,0.5-0.27,1.02-0.29,1.56c0,0.1-0.06,0.19-0.06,0.3c0,0.03,0.01,0.07,0.02,0.1
						c0,0.13,0.04,0.25,0.05,0.38c0.04,0.41,0.11,0.8,0.23,1.17c0.02,0.06,0.02,0.13,0.04,0.19c0.04,0.1,0.11,0.16,0.14,0.25
						c0.16,0.37,0.35,0.7,0.58,1.02c0.09,0.13,0.17,0.26,0.28,0.38c0.34,0.39,0.71,0.75,1.14,1.03c0,0,0.01,0.01,0.01,0.01
						c0.02,0.01,0.04,0.01,0.06,0.03c0.08,0.06,0.15,0.11,0.23,0.16c1.27,0.82,2.79,1,4.21,0.67l72.87-0.96l30.85,69.15
						c0.44,0.97,1.15,1.79,2.02,2.36c0.48,0.31,1.02,0.55,1.6,0.7c1.61,0.42,3.33,0.08,4.66-0.92L360.8,495.32
						c0.88-0.42,1.65-1.08,2.22-1.96c0.17-0.27,0.22-0.58,0.34-0.88C363.37,492.47,363.37,492.46,363.38,492.45z"/>
					
						<linearGradient id="SVGID_4_" gradientUnits="userSpaceOnUse" x1="667.1052" y1="1550.3564" x2="147.9585" y2="636.3235" gradientTransform="matrix(0.8393 0.5437 -0.5437 0.8393 426.2279 -695.8185)">
						<stop  offset="0" style="stop-color:#00ADFB"/>
						<stop  offset="0.9916" style="stop-color:#B9EDFF"/>
					</linearGradient>
					<path class="st3" d="M386.72,24.31C313.46-485.89-139.8-105-87.08,350.65c-57.91,157.43-50.99,328.86,89.8,420.06
						c140.79,91.2,328.86,50.99,420.06-89.8C513.98,540.12,410.56,190.36,386.72,24.31z"/>
				</g>
				<linearGradient id="SVGID_5_" gradientUnits="userSpaceOnUse" x1="0" y1="612.9929" x2="379.5302" y2="612.9929">
					<stop  offset="0" style="stop-color:#006568"/>
					<stop  offset="1" style="stop-color:#00878A"/>
				</linearGradient>
				<path class="st4" d="M39.75,825.77h295.96c21.77,0,39.5-17.52,39.75-39.29l4.07-346.06c0.26-22.14-17.61-40.22-39.75-40.22
					H39.75C17.8,400.21,0,418.01,0,439.96v346.06C0,807.98,17.8,825.77,39.75,825.77z"/>
				<linearGradient id="SVGID_6_" gradientUnits="userSpaceOnUse" x1="37.8974" y1="353.9479" x2="37.8974" y2="138.9712">
					<stop  offset="0.2823" style="stop-color:#004B4D"/>
					<stop  offset="1" style="stop-color:#00878A"/>
				</linearGradient>
				<path class="st5" d="M252.77,355.76l-57.37,25.31L83.79,261c-2.81-3.72-6.5-6.84-10.78-9.29c-15.5-8.87-35.03-6.39-48.59,5.23
					l-6.04,5.18c-14.98,12.84-37.78,9.84-48.93-6.44l-54.5-79.61c-12.51-16.56-41.61-20.38-60.64-7.98l18.58,134.43
					c-25.2,16.42-43.07,41.96-49.87,71.26"/>
				<g>
					<linearGradient id="SVGID_7_" gradientUnits="userSpaceOnUse" x1="285.902" y1="496.4738" x2="285.902" y2="224.9669">
						<stop  offset="0" style="stop-color:#004B4D"/>
						<stop  offset="1" style="stop-color:#00878A"/>
					</linearGradient>
					<path class="st6" d="M146.74,457.72l99.98,33.18l193.72,42.18c8.41-7.64,19.74-112.91,26.8-121.35l-44.29-131.28
						c-10.7-6.38-12.9-6.22-21.84,1.58l-50.07,33.13c-7.75,6.76-18.96,7.8-27.82,2.59l-12.54-7.37
						c-11.24-6.61-27.06-6.11-37.55,1.19l-56.45,39.27l-24.41-15.43c-8.3-5.25-20.22-5.49-28.87-0.59l-58.83,33.31L146.74,457.72z"
						/>
					<linearGradient id="SVGID_8_" gradientUnits="userSpaceOnUse" x1="180.4375" y1="926.9849" x2="180.4375" y2="364.561">
						<stop  offset="0" style="stop-color:#006568"/>
						<stop  offset="1" style="stop-color:#00878A"/>
					</linearGradient>
					<path class="st7" d="M252.06,330.03l-89.81,50.42l-72.13-77.6c-1.82-2.4-4.2-4.42-6.97-6c-10.02-5.73-22.64-4.13-31.4,3.38
						l-3.9,3.35c-9.68,8.3-24.42,6.36-31.62-4.16l-35.22-51.45c-8.08-10.7-26.89-13.17-39.19-5.16l12.01,86.88
						c-16.29,10.61-27.84,27.12-32.23,46.06c-3.51,15.12-7.06,30.41-5.42,29.55c28.22-14.81,63.57-1.34,84.91,22.34l-25.99,367.34
						c26.68,29.61,381.35,23.71,407.55-6.15l62.48-434.27l-50.33,26.48c-16.94,8.91-37.66,6.18-51.71-6.82l-38.18-35.33
						C294.95,329.7,265.57,324.07,252.06,330.03z"/>
				</g>
				<path class="st8" d="M-6.44,474.76c0.06-0.73,0.11-1.47,0.11-2.22c0-14.86-12.04-26.9-26.9-26.9c-5.5,0-10.61,1.66-14.87,4.49
					c-5.67-10.11-16.48-16.95-28.9-16.95c-15.59,0-28.63,10.78-32.16,25.29c-2.83-1.36-5.98-2.15-9.33-2.15
					c-10.85,0-19.8,8.02-21.31,18.44H-6.44z"/>
				<path class="st8" d="M397.31,595.77c-0.07-0.8-0.12-1.61-0.12-2.43c0-16.25,13.18-29.43,29.43-29.43
					c6.02,0,11.61,1.81,16.27,4.91c6.21-11.06,18.03-18.55,31.61-18.55c17.06,0,31.32,11.8,35.18,27.67
					c3.09-1.49,6.54-2.35,10.21-2.35c11.87,0,21.66,8.77,23.31,20.18H397.31z"/>
				<circle class="st8" cx="391.54" cy="377.22" r="7.02"/>
				<path class="st8" d="M-47.38,531.91c0-3.88-3.14-7.02-7.02-7.02c-3.88,0-7.02,3.14-7.02,7.02c0,3.88,3.14,7.02,7.02,7.02
					C-50.53,538.93-47.38,535.79-47.38,531.91z"/>
				<path class="st8" d="M192.76,890.57c0-3.88-3.15-7.03-7.03-7.03c-3.88,0-7.03,3.15-7.03,7.03s3.15,7.03,7.03,7.03
					C189.61,897.6,192.76,894.45,192.76,890.57z"/>
				<circle class="st8" cx="447.54" cy="505.32" r="10.46"/>
			</g>
		</g>
	</g>
</g>
<rect x="-609.33" y="181.22" class="st9" width="181.33" height="227.13"/>
<rect x="-602.22" y="491.44" class="st10" width="181.33" height="227.13"/>
<g>
	<defs>
		<rect id="SVGID_9_" y="0.11" width="375.5" height="812"/>
	</defs>
	<clipPath id="SVGID_10_">
		<use xlink:href="#SVGID_9_"  style="overflow:visible;"/>
	</clipPath>
	
		<linearGradient id="SVGID_11_" gradientUnits="userSpaceOnUse" x1="209.7904" y1="772.5641" x2="209.7904" y2="231.7607" gradientTransform="matrix(0.997 -0.077 0.077 0.997 -46.2753 15.6224)">
		<stop  offset="0" style="stop-color:#00878A"/>
		<stop  offset="1" style="stop-color:#009999"/>
	</linearGradient>
	<path class="st11" d="M-32.16,402.48l40.8-49.2c8.88-10.71,24.76-12.19,35.47-3.32l29.09,19.37c10.51,6.99,23.86,8.13,35.39,3.01
		l19.14-8.5c10.68-4.74,22.78-5.18,33.78-1.24l39.41,14.15c11.51,4.13,24.05,4.47,35.77,0.96l46.1-13.8
		c0.09-0.03,0.17-0.05,0.26-0.08c12.85-3.77,26.75-0.33,36.68,8.66L375,422.54c11.69,3.61,24.18,3.7,35.91,0.24l27.34-8.04
		l-38.89,414.47H-16.37"/>
	<g class="st12">
		<g class="st13">
			<path class="st8" d="M19.31,34.72c-1.03-0.64-1.85-1.58-2.45-2.82c-0.6-1.23-0.89-2.7-0.89-4.4s0.3-3.16,0.89-4.4
				c0.6-1.23,1.41-2.17,2.45-2.82c1.03-0.64,2.21-0.97,3.53-0.97c1.32,0,2.5,0.32,3.54,0.97c1.04,0.64,1.86,1.58,2.46,2.82
				c0.6,1.23,0.89,2.7,0.89,4.4s-0.3,3.16-0.89,4.4c-0.6,1.23-1.41,2.17-2.46,2.82c-1.04,0.64-2.22,0.97-3.54,0.97
				C21.52,35.69,20.35,35.37,19.31,34.72z M25.62,31.71c0.68-0.94,1.02-2.34,1.02-4.2s-0.34-3.26-1.02-4.2
				c-0.68-0.94-1.61-1.41-2.79-1.41c-1.16,0-2.08,0.47-2.76,1.41c-0.68,0.94-1.02,2.34-1.02,4.2s0.34,3.26,1.02,4.2
				c0.68,0.94,1.6,1.41,2.76,1.41C24.01,33.12,24.94,32.65,25.62,31.71z"/>
			<path class="st8" d="M42.6,21.37c1.25,1.36,1.87,3.32,1.87,5.86c0,1.79-0.34,3.31-1.01,4.58c-0.67,1.26-1.62,2.23-2.83,2.89
				c-1.22,0.66-2.62,0.99-4.22,0.99c-0.85,0-1.64-0.09-2.39-0.26c-0.74-0.17-1.39-0.43-1.94-0.76l1.13-2.23
				c0.81,0.52,1.86,0.77,3.13,0.77c1.58,0,2.82-0.47,3.72-1.41c0.89-0.94,1.34-2.29,1.34-4.07v-0.02c-0.49,0.55-1.1,0.96-1.86,1.24
				c-0.75,0.28-1.6,0.42-2.54,0.42c-1.08,0-2.05-0.2-2.92-0.6c-0.86-0.4-1.54-0.97-2.02-1.72c-0.49-0.74-0.73-1.6-0.73-2.57
				c0-1.03,0.27-1.94,0.8-2.72c0.53-0.78,1.25-1.38,2.16-1.81c0.91-0.42,1.93-0.64,3.06-0.64C39.6,19.33,41.35,20.01,42.6,21.37z
				 M39.99,26.28c0.62-0.51,0.93-1.17,0.93-1.95c0-0.77-0.3-1.41-0.91-1.92c-0.6-0.51-1.44-0.76-2.5-0.76
				c-0.96,0-1.73,0.25-2.33,0.74c-0.6,0.49-0.89,1.15-0.89,1.97c0,0.83,0.3,1.49,0.89,1.98c0.6,0.49,1.4,0.73,2.4,0.73
				C38.57,27.05,39.37,26.8,39.99,26.28z"/>
			<path class="st8" d="M47.01,26.43c-0.38-0.36-0.56-0.81-0.56-1.35c0-0.56,0.18-1.01,0.55-1.36c0.37-0.35,0.83-0.52,1.38-0.52
				c0.55,0,1.01,0.17,1.38,0.52c0.37,0.35,0.55,0.8,0.55,1.36c0,0.55-0.19,1-0.56,1.35c-0.38,0.36-0.83,0.53-1.36,0.53
				C47.84,26.96,47.39,26.78,47.01,26.43z M47.01,35.08c-0.38-0.36-0.56-0.81-0.56-1.35c0-0.56,0.18-1.01,0.55-1.36
				c0.37-0.35,0.83-0.52,1.38-0.52c0.55,0,1.01,0.17,1.38,0.52c0.37,0.35,0.55,0.8,0.55,1.36c0,0.55-0.19,1-0.56,1.35
				c-0.38,0.36-0.83,0.53-1.36,0.53C47.84,35.62,47.39,35.44,47.01,35.08z"/>
			<path class="st8" d="M55.61,34.72c-1.03-0.64-1.85-1.58-2.45-2.82c-0.6-1.23-0.89-2.7-0.89-4.4s0.3-3.16,0.89-4.4
				c0.6-1.23,1.41-2.17,2.45-2.82c1.03-0.64,2.21-0.97,3.53-0.97c1.32,0,2.5,0.32,3.54,0.97c1.04,0.64,1.86,1.58,2.46,2.82
				c0.6,1.23,0.89,2.7,0.89,4.4s-0.3,3.16-0.89,4.4c-0.6,1.23-1.42,2.17-2.46,2.82c-1.04,0.64-2.22,0.97-3.54,0.97
				C57.82,35.69,56.65,35.37,55.61,34.72z M61.93,31.71c0.68-0.94,1.02-2.34,1.02-4.2s-0.34-3.26-1.02-4.2
				c-0.68-0.94-1.61-1.41-2.79-1.41c-1.16,0-2.08,0.47-2.76,1.41c-0.68,0.94-1.02,2.34-1.02,4.2s0.34,3.26,1.02,4.2
				c0.68,0.94,1.6,1.41,2.76,1.41C60.32,33.12,61.25,32.65,61.93,31.71z"/>
			<path class="st8" d="M71.44,34.72c-1.03-0.64-1.85-1.58-2.45-2.82c-0.6-1.23-0.89-2.7-0.89-4.4s0.3-3.16,0.89-4.4
				c0.6-1.23,1.41-2.17,2.45-2.82c1.03-0.64,2.21-0.97,3.53-0.97c1.32,0,2.5,0.32,3.54,0.97c1.04,0.64,1.86,1.58,2.46,2.82
				c0.6,1.23,0.89,2.7,0.89,4.4s-0.3,3.16-0.89,4.4c-0.6,1.23-1.42,2.17-2.46,2.82c-1.04,0.64-2.22,0.97-3.54,0.97
				C73.65,35.69,72.47,35.37,71.44,34.72z M77.75,31.71c0.68-0.94,1.02-2.34,1.02-4.2s-0.34-3.26-1.02-4.2
				c-0.68-0.94-1.61-1.41-2.79-1.41c-1.16,0-2.08,0.47-2.76,1.41c-0.68,0.94-1.02,2.34-1.02,4.2s0.34,3.26,1.02,4.2
				c0.68,0.94,1.6,1.41,2.76,1.41C76.14,33.12,77.07,32.65,77.75,31.71z"/>
		</g>
		<g class="st13">
			<path class="st8" d="M299.69,36.18L299.69,36.18c-1.04,0-1.89-0.84-1.89-1.89v-1.95c0-1.04,0.84-1.89,1.89-1.89l0,0
				c1.04,0,1.89,0.84,1.89,1.89v1.95C301.58,35.33,300.73,36.18,299.69,36.18z"/>
			<path class="st8" d="M305.84,36.18L305.84,36.18c-1.04,0-1.89-0.84-1.89-1.89v-5.83c0-1.04,0.84-1.89,1.89-1.89l0,0
				c1.04,0,1.89,0.84,1.89,1.89v5.83C307.73,35.33,306.88,36.18,305.84,36.18z"/>
			<path class="st8" d="M311.99,36.18L311.99,36.18c-1.04,0-1.89-0.84-1.89-1.89v-9.7c0-1.04,0.84-1.89,1.89-1.89l0,0
				c1.04,0,1.89,0.84,1.89,1.89v9.7C313.88,35.33,313.03,36.18,311.99,36.18z"/>
			<path class="st8" d="M318.14,36.18L318.14,36.18c-1.04,0-1.89-0.84-1.89-1.89V20.72c0-1.04,0.84-1.89,1.89-1.89l0,0
				c1.04,0,1.89,0.84,1.89,1.89v13.57C320.03,35.33,319.18,36.18,318.14,36.18z"/>
		</g>
		<g class="st13">
			<g>
				<path class="st8" d="M356.95,35.86h-16.74c-2.58,0-4.67-2.1-4.67-4.69v-7.34c0-2.58,2.1-4.67,4.67-4.67h16.74
					c2.05,0,3.85,1.34,4.45,3.26h0.73c1.6,0,2.89,1.3,2.89,2.89v4.4c0,1.59-1.3,2.88-2.89,2.88h-0.73
					C360.8,34.51,358.99,35.86,356.95,35.86z M340.21,20.29c-1.95,0-3.54,1.59-3.54,3.54v7.34c0,1.96,1.59,3.55,3.54,3.55h16.74
					c1.67,0,3.12-1.18,3.46-2.82c0.05-0.26,0.29-0.45,0.56-0.45h1.17c0.97,0,1.76-0.78,1.76-1.75v-4.4c0-0.97-0.79-1.76-1.76-1.76
					h-1.17c-0.27,0-0.5-0.19-0.56-0.45c-0.34-1.62-1.79-2.8-3.46-2.8H340.21z"/>
			</g>
			<path class="st8" d="M340.6,32.69L340.6,32.69c-1.04,0-1.89-0.84-1.89-1.89v-6.59c0-1.04,0.84-1.89,1.89-1.89h0
				c1.04,0,1.89,0.84,1.89,1.89v6.59C342.48,31.84,341.64,32.69,340.6,32.69z"/>
			<path class="st8" d="M345.63,32.69L345.63,32.69c-1.04,0-1.89-0.84-1.89-1.89v-6.59c0-1.04,0.84-1.89,1.89-1.89l0,0
				c1.04,0,1.89,0.84,1.89,1.89v6.59C347.52,31.84,346.67,32.69,345.63,32.69z"/>
			<path class="st8" d="M350.67,32.69L350.67,32.69c-1.04,0-1.89-0.84-1.89-1.89v-6.59c0-1.04,0.84-1.89,1.89-1.89l0,0
				c1.04,0,1.89,0.84,1.89,1.89v6.59C352.55,31.84,351.71,32.69,350.67,32.69z"/>
		</g>
	</g>
	<path class="st14" d="M439.81,253.04c3.39-3.79,5.46-8.79,5.46-14.28c0-11.86-9.61-21.47-21.47-21.47c-3.28,0-6.38,0.76-9.17,2.08
		c-0.59-14.27-12.35-25.66-26.77-25.66c-11.04,0-20.51,6.68-24.62,16.21c-2.69-1.04-5.61-1.62-8.67-1.62
		c-11.86,0-21.71,8.61-23.65,19.92c-1.9-0.6-3.93-0.92-6.03-0.92c-11.14,0-20.18,9.03-20.18,20.18c0,1.94,0.29,3.8,0.8,5.57H439.81z
		"/>
	<path class="st14" d="M-35.64,127.49H82.94c2.88-3.3,4.64-7.6,4.64-12.32c0-10.36-8.39-18.75-18.75-18.75
		c-1.92,0-3.77,0.29-5.51,0.83c-1.3-7.25-7.62-12.76-15.24-12.76c-1.95,0-3.82,0.38-5.54,1.04c-4.12-8.88-13.1-15.04-23.53-15.04
		c-10.46,0-19.47,6.2-23.57,15.12c-1.82-0.72-3.79-1.12-5.86-1.12c-6.94,0-12.83,4.43-15.05,10.61c-9.24,1.11-16.41,8.96-16.41,18.5
		C-41.88,119.12-39.47,124.08-35.64,127.49z"/>
</g>
<g class="st15">
	<circle class="st16" cx="191.5" cy="326.21" r="88.14"/>
	<g class="st13">
		<linearGradient id="SVGID_12_" gradientUnits="userSpaceOnUse" x1="187.5" y1="474.9217" x2="187.5" y2="243.8487">
			<stop  offset="0" style="stop-color:#00ADFB"/>
			<stop  offset="0.9916" style="stop-color:#B9EDFF"/>
		</linearGradient>
		<path class="st17" d="M275.64,319.6c-0.31-49.55-41.44-89.3-91.31-87.54c-45.25,1.6-82.44,38.07-84.84,83.28
			c-1.26,23.89,7,45.79,21.28,62.34l0,0l51.28,74.47c7.88,11.44,24.8,11.33,32.54-0.2l50.36-75.1l0,0
			C267.96,361.4,275.77,341.41,275.64,319.6z"/>
		<g>
			<defs>
				<circle id="SVGID_13_" cx="187.5" cy="320.21" r="88.14"/>
			</defs>
			<clipPath id="SVGID_14_">
				<use xlink:href="#SVGID_13_"  style="overflow:visible;"/>
			</clipPath>
			<linearGradient id="SVGID_15_" gradientUnits="userSpaceOnUse" x1="168.7224" y1="417.3367" x2="202.5298" y2="242.4705">
				<stop  offset="0" style="stop-color:#00ADFB"/>
				<stop  offset="0.9916" style="stop-color:#B9EDFF"/>
			</linearGradient>
			<circle class="st18" cx="187.5" cy="320.21" r="88.14"/>
			<g class="st19">
				<path class="st20" d="M139.89,271.27l56.57,15.64c0,0,37.6,19.96,39.26,20.3c1.66,0.33,4.66,11.65,4.66,11.65
					s-32.28,26.7-33.27,27.49c-1,0.79-25.29,13.77-27.95,12.77c-2.66-1-23.63-18.38-23.63-18.38s-16.97-21.8-16.97-23.5
					C138.56,315.53,139.89,271.27,139.89,271.27z"/>
				<path class="st2" d="M237.38,313.44c0.08-0.19,0.12-0.38,0.12-0.57c0,0,0,0,0-0.01c0,0,0-0.01,0-0.01
					c0-0.19-0.03-0.36-0.09-0.54c-0.01-0.04-0.03-0.07-0.04-0.1c-0.06-0.13-0.12-0.25-0.22-0.36c-0.06-0.07-0.13-0.13-0.19-0.19
					c-0.05-0.05-0.09-0.11-0.15-0.15l-0.01,0c-0.05-0.04-0.09-0.05-0.13-0.07c-0.01-0.01-0.02-0.01-0.04-0.02
					c-0.01-0.01-0.03-0.02-0.04-0.02c-0.04-0.02-0.08-0.04-0.12-0.05l-87.74-34.13c-0.62-0.24-1.34-0.07-1.77,0.44
					c-0.44,0.51-0.51,1.23-0.19,1.82l14.6,26.05l-10.09,24.1c-0.01,0.01-0.02,0.03-0.03,0.05c-0.08,0.1-0.15,0.2-0.21,0.32
					c-0.03,0.06-0.05,0.11-0.07,0.17c-0.05,0.15-0.08,0.3-0.08,0.45c0,0.03-0.02,0.06-0.02,0.09c0,0.01,0,0.02,0,0.03
					c0,0.04,0.01,0.07,0.02,0.11c0.01,0.12,0.03,0.23,0.07,0.34c0.01,0.02,0,0.04,0.01,0.05c0.01,0.03,0.03,0.05,0.04,0.07
					c0.05,0.11,0.1,0.2,0.17,0.3c0.03,0.04,0.05,0.07,0.08,0.11c0.1,0.11,0.21,0.22,0.33,0.3c0,0,0,0,0,0c0.01,0,0.01,0,0.02,0.01
					c0.02,0.02,0.04,0.03,0.07,0.05c0.37,0.24,0.81,0.29,1.22,0.19l21.15-0.28l8.95,20.07c0.13,0.28,0.33,0.52,0.59,0.69
					c0.14,0.09,0.3,0.16,0.46,0.2c0.47,0.12,0.97,0.02,1.35-0.27l51.24-38.39c0.25-0.12,0.48-0.31,0.64-0.57
					c0.05-0.08,0.06-0.17,0.1-0.25C237.37,313.45,237.37,313.44,237.38,313.44z M164.75,328.92l-7.75,0.1l11.41-9.65l3.27,7.34
					l0.94,2.1L164.75,328.92z M168.91,315.21c-0.08,0.01-0.15,0.03-0.22,0.04c-0.03,0-0.05,0.01-0.08,0.01
					c-0.05,0.01-0.09,0.03-0.14,0.04c-0.04,0.02-0.08,0.04-0.13,0.06c-0.1,0.05-0.2,0.1-0.28,0.17c-0.02,0.01-0.04,0.02-0.05,0.03
					c0,0-0.01,0-0.02,0.01l-11.38,9.54l7.54-18l51.99,5.29L168.91,315.21z"/>
				
					<linearGradient id="SVGID_16_" gradientUnits="userSpaceOnUse" x1="260.1564" y1="1074.7469" x2="389.4269" y2="945.4764" gradientTransform="matrix(0.8393 0.5437 -0.5437 0.8393 426.2279 -695.8185)">
					<stop  offset="0.294" style="stop-color:#00ADFB"/>
					<stop  offset="0.9226" style="stop-color:#B9EDFF"/>
				</linearGradient>
				<polygon class="st21" points="168.41,319.37 157,329.02 164.75,328.92 172.62,328.81 171.69,326.71 				"/>
				
					<linearGradient id="SVGID_17_" gradientUnits="userSpaceOnUse" x1="290.4486" y1="1030.4359" x2="405.4171" y2="915.4674" gradientTransform="matrix(0.8393 0.5437 -0.5437 0.8393 426.2279 -695.8185)">
					<stop  offset="0" style="stop-color:#00ADFB"/>
					<stop  offset="0.7889" style="stop-color:#B9EDFF"/>
				</linearGradient>
				<path class="st22" d="M156.6,325.12l11.38-9.54c0,0,0.01,0,0.02-0.01c0.02-0.01,0.04-0.02,0.05-0.03
					c0.09-0.07,0.18-0.12,0.28-0.17c0.04-0.02,0.08-0.04,0.13-0.06c0.05-0.02,0.09-0.03,0.14-0.04c0.03-0.01,0.05-0.01,0.08-0.01
					c0.07-0.02,0.15-0.04,0.22-0.04l47.21-2.8l-51.99-5.29L156.6,325.12z"/>
				
					<linearGradient id="SVGID_18_" gradientUnits="userSpaceOnUse" x1="402.2684" y1="1084.9097" x2="314.3004" y2="930.0292" gradientTransform="matrix(0.8393 0.5437 -0.5437 0.8393 426.2279 -695.8185)">
					<stop  offset="0" style="stop-color:#00ADFB"/>
					<stop  offset="0.9916" style="stop-color:#B9EDFF"/>
				</linearGradient>
				<path class="st23" d="M228.55,246.24c-40.86-26.46-95.43-14.8-121.89,26.06c-26.46,40.86-14.8,95.43,26.06,121.89
					c40.86,26.46,95.43,14.8,121.89-26.06C281.08,327.27,269.41,272.7,228.55,246.24z M236.63,314.27l-51.24,38.39
					c-0.39,0.29-0.89,0.39-1.35,0.27c-0.17-0.04-0.32-0.11-0.46-0.2c-0.25-0.16-0.46-0.4-0.59-0.69l-8.95-20.07l-21.15,0.28
					c-0.41,0.09-0.85,0.04-1.22-0.19c-0.02-0.01-0.04-0.03-0.07-0.05c-0.01,0-0.01,0-0.02-0.01c0,0,0,0,0,0
					c-0.13-0.08-0.23-0.19-0.33-0.3c-0.03-0.03-0.05-0.07-0.08-0.11c-0.07-0.09-0.12-0.19-0.17-0.3c-0.01-0.03-0.03-0.04-0.04-0.07
					c-0.01-0.02-0.01-0.04-0.01-0.05c-0.04-0.11-0.06-0.22-0.07-0.34c0-0.04-0.01-0.07-0.02-0.11c0-0.01-0.01-0.02,0-0.03
					c0-0.03,0.02-0.06,0.02-0.09c0.01-0.16,0.03-0.31,0.08-0.45c0.02-0.06,0.05-0.12,0.07-0.17c0.05-0.11,0.12-0.22,0.21-0.32
					c0.01-0.02,0.02-0.04,0.03-0.05l10.09-24.1l-14.6-26.05c-0.33-0.58-0.25-1.31,0.19-1.82c0.44-0.51,1.15-0.68,1.77-0.44
					l87.74,34.13c0.04,0.01,0.08,0.03,0.12,0.05c0.02,0.01,0.03,0.02,0.04,0.02c0.01,0.01,0.02,0.01,0.04,0.02
					c0.04,0.02,0.08,0.04,0.13,0.07l0.01,0c0.06,0.04,0.1,0.1,0.15,0.15c0.07,0.06,0.14,0.12,0.19,0.19
					c0.09,0.11,0.16,0.23,0.22,0.36c0.01,0.04,0.03,0.07,0.04,0.1c0.06,0.17,0.09,0.35,0.09,0.54c0,0,0,0.01,0,0.01c0,0,0,0,0,0.01
					c0,0.2-0.04,0.38-0.12,0.57c0,0,0,0.01,0,0.01c-0.04,0.08-0.05,0.18-0.1,0.25C237.11,313.96,236.88,314.15,236.63,314.27z"/>
			</g>
			<g class="st19">
				<defs>
					<circle id="SVGID_19_" cx="187.5" cy="320.21" r="93.17"/>
				</defs>
				<clipPath id="SVGID_20_">
					<use xlink:href="#SVGID_19_"  style="display:none;overflow:visible;"/>
				</clipPath>
				<linearGradient id="SVGID_21_" gradientUnits="userSpaceOnUse" x1="220.1061" y1="415.3136" x2="220.1061" y2="330.7003">
					<stop  offset="0" style="stop-color:#004B4D"/>
					<stop  offset="1" style="stop-color:#00878A"/>
				</linearGradient>
				<path class="st24" d="M175.11,414.33l37.34,12.39l59.72-68.05c3.14-2.85,6.04-5.86,8.68-9.01l-2.58-1.54
					c-4-2.38-9.73-1.97-13.07,0.94l-18.64,16.24l-10.23-6.01c-4.2-2.47-10.11-2.28-14.02,0.44l-21.08,14.67l-9.12-5.76
					c-3.1-1.96-7.55-2.05-10.78-0.22l-21.97,12.44L175.11,414.33z"/>
				<linearGradient id="SVGID_22_" gradientUnits="userSpaceOnUse" x1="164.1078" y1="457.5838" x2="164.1078" y2="368.2522">
					<stop  offset="0" style="stop-color:#006568"/>
					<stop  offset="1" style="stop-color:#00878A"/>
				</linearGradient>
				<path class="st25" d="M194.76,387.95l-13.85,6.11l-16.4-21.7c-2.32-3.08-7.16-4.48-11.57-3.35l-13.59,3.48l-15.59-20.64
					c-3.02-4-10.04-4.92-14.64-1.93l-9.99,6.51c1.06,1.03,2.15,2.04,3.27,3.04l64.89,72c9.96,11.06,31.38,10.96,41.17-0.19
					l20.63-23.51l-19.16-17.73C206.22,386.61,199.8,385.72,194.76,387.95z"/>
			</g>
			<path class="st26" d="M130.06,308.31c0.02-0.21,0.03-0.43,0.03-0.64c0-4.31-3.5-7.81-7.81-7.81c-1.6,0-3.08,0.48-4.31,1.3
				c-1.65-2.93-4.78-4.92-8.39-4.92c-4.52,0-8.31,3.13-9.33,7.34c-0.82-0.39-1.74-0.62-2.71-0.62c-3.15,0-5.74,2.33-6.18,5.35
				H130.06z"/>
			<path class="st26" d="M247.22,343.42c-0.02-0.23-0.04-0.47-0.04-0.71c0-4.72,3.82-8.54,8.54-8.54c1.75,0,3.37,0.53,4.72,1.43
				c1.8-3.21,5.23-5.38,9.17-5.38c4.95,0,9.09,3.42,10.21,8.03c0.9-0.43,1.9-0.68,2.96-0.68c3.44,0,6.28,2.54,6.76,5.85H247.22z"/>
			<circle class="st26" cx="245.55" cy="280" r="2.04"/>
			<path class="st26" d="M118.18,324.89c0-1.12-0.91-2.04-2.04-2.04c-1.12,0-2.04,0.91-2.04,2.04c0,1.12,0.91,2.04,2.04,2.04
				C117.27,326.93,118.18,326.02,118.18,324.89z"/>
			<path class="st26" d="M159.66,379.48c0-1.13-0.91-2.04-2.04-2.04c-1.13,0-2.04,0.91-2.04,2.04c0,1.13,0.91,2.04,2.04,2.04
				C158.75,381.52,159.66,380.6,159.66,379.48z"/>
			<path class="st26" d="M187.87,428.97c0-1.13-0.91-2.04-2.04-2.04c-1.13,0-2.04,0.91-2.04,2.04c0,1.13,0.91,2.04,2.04,2.04
				C186.95,431.01,187.87,430.09,187.87,428.97z"/>
			<circle class="st26" cx="261.8" cy="317.17" r="3.04"/>
			<circle class="st26" cx="149.13" cy="258.14" r="3.04"/>
			<circle class="st26" cx="228.85" cy="384.55" r="3.04"/>
		</g>
	</g>
</g>
<rect x="65.33" y="161.8" class="st2" width="248" height="88.89"/>
<text transform="matrix(1 0 0 1 107.1191 184.3149)" class="st27 st28 st29">Bem VINDO</text>
<rect x="65.33" y="161.8" class="st2" width="248" height="88.89"/>
<text transform="matrix(1 0 0 1 107.1191 184.3149)" class="st27 st28 st29">Bem VINDO</text>
<rect x="97.1" y="439" class="st2" width="180.8" height="23.11"/>
<text transform="matrix(1 0 0 1 105.2864 461.5145)" class="st27 st28 st29">BEM VINDO</text>
<path class="st27" d="M332.22,640H43.78c-11.17,0-20.22-9.05-20.22-20.22l0,0c0-11.17,9.05-20.22,20.22-20.22h288.44
	c11.17,0,20.22,9.05,20.22,20.22l0,0C352.44,630.95,343.39,640,332.22,640z"/>
<path class="st27" d="M332.22,718.57H43.78c-11.17,0-20.22-9.05-20.22-20.22v0c0-11.17,9.05-20.22,20.22-20.22h288.44
	c11.17,0,20.22,9.05,20.22,20.22v0C352.44,709.52,343.39,718.57,332.22,718.57z"/>
<path class="st30" d="M321.78,626.89H118.22c-3.93,0-7.11-3.18-7.11-7.11l0,0c0-3.93,3.18-7.11,7.11-7.11h203.56
	c3.93,0,7.11,3.18,7.11,7.11l0,0C328.89,623.71,325.71,626.89,321.78,626.89z"/>
<path class="st30" d="M75.56,626.89H58.67c-3.93,0-7.11-3.18-7.11-7.11l0,0c0-3.93,3.18-7.11,7.11-7.11h16.89
	c3.93,0,7.11,3.18,7.11,7.11l0,0C82.67,623.71,79.48,626.89,75.56,626.89z"/>
<path class="st30" d="M321.78,705.46H118.22c-3.93,0-7.11-3.18-7.11-7.11v0c0-3.93,3.18-7.11,7.11-7.11h203.56
	c3.93,0,7.11,3.18,7.11,7.11v0C328.89,702.28,325.71,705.46,321.78,705.46z"/>
<path class="st30" d="M75.56,705.46H58.67c-3.93,0-7.11-3.18-7.11-7.11v0c0-3.93,3.18-7.11,7.11-7.11h16.89
	c3.93,0,7.11,3.18,7.11,7.11v0C82.67,702.28,79.48,705.46,75.56,705.46z"/>
</svg>
